#!OML:ASF H:\ColoradoDance\Project 1\Capture day 1\Session 8\male.ASF
:FULLY-SPECIFIED
:DEGREES
160
upperback -3.160880 2.359170 1.290190
rfoot 14.524100 -28.663601
lradius 22.616400
lthumb 5.106320 82.841797
rradius 53.738499
lwrist -11.024300
rhand -28.355900 -9.565730
rhumerus -37.569599 39.662899 -113.772003
lowerneck -3.963420 -8.965800 1.031800
lhand -21.277599 52.923302
ltibia 55.841900
head 0.858839 -5.999950 -0.961583
rwrist 8.549250
lfingers 7.125020
rtoes 3.681430
lowerback 5.313130 1.820680 -1.985740
rfingers 7.125020
lclavicle -0.000000 -0.000000
upperneck 1.273460 -11.963300 -1.908430
rfemur -8.738320 -6.578950 -6.324130
thorax -6.414570 1.283310 2.203940
rclavicle -0.000000 -0.000000
rtibia 46.894699
lfoot -16.908899 3.212090
lhumerus -43.656101 16.240499 31.196301
rthumb -1.729640 320.462006
root -2.402310 17.575300 -22.611099 10.294900 14.891300 353.977997
ltoes -19.321699
lfemur -37.169102 21.242599 2.423320
161
upperback -3.814780 1.644350 0.763488
rfoot -18.015800 -20.925301
lradius 21.030300
lthumb 7.015850 61.896801
rradius 47.649101
lwrist -19.818800
rhand -34.836700 6.751290
rhumerus -35.800701 32.364700 -106.924004
lowerneck -6.288080 -5.230810 2.149630
lhand -19.299700 32.033100
ltibia 13.827300
head 1.927590 -3.547170 -1.130950
rwrist 6.861260
lfingers 7.125020
rtoes -27.035601
lowerback 3.389120 1.126000 1.475330
rfingers 7.125020
lclavicle 0.000000 -0.000000
upperneck 3.175020 -7.080100 -1.656060
rfemur -1.196040 6.585950 7.449260
thorax -5.838210 0.771404 -0.172061
rclavicle 0.000000 -0.000000
rtibia 15.459600
lfoot -5.165400 32.516800
lhumerus -57.660999 17.126400 31.349001
rthumb -7.987150 336.921997
root -7.929500 18.285700 -24.667500 12.266300 7.777110 351.397003
ltoes -7.747690
lfemur -18.242001 -12.967800 21.819799
162
upperback -3.881810 0.939982 0.733798
rfoot -20.078199 -24.691099
lradius 22.615499
lthumb 4.056980 55.249901
rradius 24.405600
lwrist -13.611100
rhand -42.646702 -16.474199
rhumerus -34.760799 -7.346670 -65.683601
lowerneck -4.808620 -3.771390 2.388590
lhand -22.364300 25.308800
ltibia 43.308201
head 2.322520 -2.548400 -0.833543
rwrist 17.647100
lfingers 7.125020
rtoes -13.543700
lowerback 2.757720 0.558476 2.803130
rfingers 7.125020
lclavicle 0.000000 -0.000000
upperneck 5.015720 -5.164380 -0.788083
rfemur -11.998000 13.849200 14.744900
thorax -5.537600 0.367576 -0.880016
rclavicle 0.000000 -0.000000
rtibia 25.144501
lfoot -16.168200 25.504601
lhumerus -48.683701 13.147300 64.227997
rthumb -15.518100 314.127991
root -11.025600 19.318800 -26.117599 11.383800 4.207760 352.753998
ltoes -15.517100
lfemur -20.907301 5.762550 -5.328160
163
upperback -4.076710 0.452003 0.046914
rfoot -24.556000 -23.522800
lradius 33.722801
lthumb 4.290760 55.318298
rradius 20.591900
lwrist -5.648160
rhand -40.140099 -10.090600
rhumerus -50.778702 -7.932300 -48.744900
lowerneck -4.541440 -4.580410 1.081600
lhand -22.122200 25.381800
ltibia 38.818199
head 2.486320 -3.062210 -0.349515
rwrist 7.280290
lfingers 7.125020
rtoes -9.357430
lowerback 0.739726 0.323137 0.423679
rfingers 7.125020
lclavicle -0.000000 0.000000
upperneck 5.492960 -6.210190 0.163733
rfemur -15.484400 7.050060 18.365601
thorax -4.612550 0.211929 -0.210459
rclavicle -0.000000 0.000000
rtibia 33.363899
lfoot -26.643600 0.596006
lhumerus -42.191502 2.003670 78.828201
rthumb -13.102800 320.341003
root -12.771900 19.393101 -26.397800 10.151800 7.157710 355.027008
ltoes -11.312100
lfemur -13.378200 0.453631 -20.896400
164
upperback -3.688580 -0.915986 -1.094860
rfoot -21.914101 -23.530500
lradius 39.732300
lthumb 5.864640 57.886501
rradius 21.461300
lwrist -5.823540
rhand -36.227100 -10.444700
rhumerus -57.886002 -16.030899 -59.567299
lowerneck -4.347440 -5.759760 -0.612843
lhand -20.492201 27.987700
ltibia 28.228800
head 1.829540 -3.819270 0.953392
rwrist 9.200400
lfingers 7.125020
rtoes -9.969820
lowerback 1.284570 -0.530293 -4.706110
rfingers 7.125020
lclavicle -0.000000 -0.000000
upperneck 2.938930 -7.794860 3.454850
rfemur -26.419201 -0.937775 19.857700
thorax -4.481680 -0.306456 1.549500
rclavicle -0.000000 -0.000000
rtibia 53.760502
lfoot -26.916500 0.453123
lhumerus -42.026299 -0.646888 80.094398
rthumb -9.328910 319.782013
root -13.742800 19.219101 -26.140301 10.739700 12.140400 358.033997
ltoes 3.338120
lfemur -7.622980 -4.893540 -20.620899
165
upperback -3.418820 -1.159620 -0.743898
rfoot -11.430100 -15.117800
lradius 34.271301
lthumb 7.491290 57.450298
rradius 28.581900
lwrist -7.443250
rhand 11.103900 -2.812290
rhumerus -50.462799 -6.937280 -87.108902
lowerneck -3.942270 -7.879380 -2.609260
lhand -18.807199 27.602900
ltibia 19.386101
head 1.220050 -5.187260 1.166880
rwrist 13.612400
lfingers 7.125020
rtoes -10.552700
lowerback 2.051270 -0.692239 -4.836160
rfingers 7.125020
lclavicle 0.000000 -0.000000
upperneck 0.773111 -10.450100 3.195670
rfemur -48.823002 -17.225800 20.937099
thorax -4.612130 -0.416649 2.007650
rclavicle 0.000000 -0.000000
rtibia 52.569401
lfoot -24.990900 2.756630
lhumerus -41.234001 1.429390 78.893303
rthumb 36.172600 330.914001
root -14.476800 19.182600 -24.723101 12.281900 18.942101 360.161987
ltoes -2.234930
lfemur -1.012910 -12.163900 -18.747700
166
upperback -3.355760 0.387068 -0.996799
rfoot -12.430100 -35.914299
lradius 29.855400
lthumb 5.615760 58.720001
rradius 30.251900
lwrist -9.301630
rhand -33.282299 -0.488438
rhumerus -50.982498 -8.359100 -78.054398
lowerneck -3.785150 -9.018250 -2.345270
lhand -20.750000 28.814400
ltibia 7.303080
head 1.851760 -5.968660 0.101692
rwrist 10.952600
lfingers 7.125020
rtoes 17.253901
lowerback -0.594499 0.339886 -4.276020
rfingers 7.125020
lclavicle -0.000000 -0.000000
upperneck 3.399040 -11.915000 0.178853
rfemur -61.489300 -36.270100 37.095600
thorax -3.144340 0.301954 1.359510
rclavicle -0.000000 -0.000000
rtibia 45.789200
lfoot -16.758801 -2.330870
lhumerus -41.986500 3.812160 72.392899
rthumb -6.486740 329.631012
root -15.438200 18.578800 -21.529800 10.323200 19.946699 362.380005
ltoes -20.706600
lfemur 16.662300 -12.330700 -15.595400
167
upperback -3.553050 0.167481 0.331035
rfoot -24.650801 -28.417101
lradius 20.413601
lthumb 0.200164 30.657600
rradius 34.574699
lwrist -17.661400
rhand -33.692902 -0.148606
rhumerus -45.343102 -6.654400 -75.738899
lowerneck -6.056230 -1.395760 3.095240
lhand -26.357800 0.677958
ltibia 61.158699
head 3.669500 -0.976652 -1.694350
rwrist 9.094410
lfingers 7.125020
rtoes 11.990900
lowerback 1.020710 0.086661 1.216780
rfingers 7.125020
lclavicle -0.000000 -0.000000
upperneck 8.141470 -1.890040 -3.163020
rfemur -37.897900 -19.804199 35.196098
thorax -4.227830 0.048364 -0.348281
rclavicle -0.000000 -0.000000
rtibia 52.513901
lfoot 2.642630 -0.132918
lhumerus -46.583099 12.391000 62.135502
rthumb -6.883110 329.983002
root -16.812401 18.554501 -17.775999 3.178780 0.104157 357.473999
ltoes 17.859800
lfemur -4.480300 1.104070 -2.605880
168
upperback -3.413370 0.789520 0.302238
rfoot -27.638500 -11.560400
lradius 24.830000
lthumb -12.472300 31.845600
rradius 46.502102
lwrist -11.371600
rhand -35.789700 2.226050
rhumerus -37.914799 -0.971567 -82.565002
lowerneck -3.452600 7.437040 9.029880
lhand -39.486000 2.237770
ltibia 48.084900
head 3.223160 4.892320 -2.470320
rwrist 0.467133
lfingers 7.125020
rtoes 3.985670
lowerback 1.832260 0.550180 1.381830
rfingers 7.125020
lclavicle -0.000000 0.000000
upperneck 5.814280 9.668800 -3.951980
rfemur -27.037100 1.565360 30.576900
thorax -4.531830 0.343818 -0.506990
rclavicle -0.000000 0.000000
rtibia 55.900101
lfoot -11.025000 14.773200
lhumerus -43.015499 5.543660 65.399803
rthumb -8.906900 332.433990
root -17.448700 18.444201 -15.229300 4.671940 -43.604698 359.184998
ltoes 7.244390
lfemur -25.430700 -2.644500 0.879427
169
upperback -3.359450 0.159721 0.733770
rfoot -27.926300 7.576830
lradius 21.838200
lthumb 0.701793 50.021599
rradius 35.116402
lwrist -20.907400
rhand -38.129799 2.754390
rhumerus -26.990700 3.238180 -76.988098
lowerneck -1.644090 -10.118000 -6.564050
lhand -25.838400 20.043100
ltibia 14.547500
head 3.496740 -6.926990 2.704520
rwrist 5.198350
lfingers 7.125020
rtoes -0.768075
lowerback 1.432930 0.163720 -1.390780
rfingers 7.125020
lclavicle 0.000000 0.000000
upperneck 7.499280 -14.016800 7.515180
rfemur -31.234301 18.069300 15.467200
thorax -4.270760 0.123842 1.529330
rclavicle 0.000000 0.000000
rtibia 61.011600
lfoot -8.061680 1.290520
lhumerus -51.274799 16.211901 38.643002
rthumb -11.164500 333.071014
root -18.000601 18.431999 -12.251800 -155.985001 -82.806801 524.583984
ltoes -25.133301
lfemur -16.676001 -27.204201 12.135000
170
upperback -3.006630 -0.885623 0.753071
rfoot -18.567400 0.123823
lradius 20.212799
lthumb 12.209200 63.532600
rradius 39.303902
lwrist -24.373301
rhand -37.040298 4.705940
rhumerus -24.111000 -6.803880 -61.999298
lowerneck -0.887034 -12.385800 -6.708920
lhand -13.916900 33.908901
ltibia 18.512199
head 3.296080 -8.429100 2.309420
rwrist -1.129490
lfingers 7.125020
rtoes -26.657301
lowerback 2.570500 -0.462953 -5.490410
rfingers 7.125020
lclavicle 0.000000 0.000000
upperneck 6.066310 -16.868401 5.641000
rfemur -51.028099 -11.387600 13.669500
thorax -4.471650 -0.260855 3.921150
rclavicle 0.000000 0.000000
rtibia 66.634201
lfoot -23.102301 11.328500
lhumerus -50.596001 12.805200 28.618000
rthumb -10.113500 334.968994
root -18.660400 18.514200 -9.734070 -162.981003 -44.715801 534.244019
ltoes -19.668900
lfemur -4.414560 -8.408410 -8.391640
